<?xml version="1.0" encoding="utf-8"?>
<!-- Generator: Adobe Illustrator 26.0.0, SVG Export Plug-In . SVG Version: 6.00 Build 0)  -->
<svg version="1.1" id="Layer_1" xmlns="http://www.w3.org/2000/svg" xmlns:xlink="http://www.w3.org/1999/xlink" x="0px" y="0px"
	 viewBox="90 250 900 520" style="enable-background:new 90 250 900 520;" xml:space="preserve">
<style type="text/css">
	.st0{fill:#8DC543;}
	.st1{fill:#272324;}
	.st2{fill:#F6A226;}
</style>
<g>
	<path class="st0" d="M672.6,449.8c-13,12.4-18.2,28.2-20.3,45.4c-0.6,4.7,3.2,6,6.3,7.7c12.6,6.6,26.4,9.9,39.8,14
		c9.7,3,19.4,6.2,28.4,10.9c12.6,6.7,15.4,14.1,10.6,27.7c-5.3,15.1-14.6,27.8-23.8,40.6c-5.4,7.4-10.7,14.9-16.6,22
		c-4,4.8-3.9,8.3,0.9,12.4c5.5,4.8,13.8,9.6,8.7,18.4c-4.7,8.1-12.5,2-18.8,1.4c-7.2-0.6-14-3.4-20.6-6.4
		c-13.8-6.4-17.8-15.8-11.2-29.5c5.2-10.9,11.7-21.2,17.5-31.9c8.4-15.4,6-21-10.9-25.1c-12.1-3-24.4-4.8-36.3-8.8
		c-16.9-5.7-27.3-16.3-30.3-34.8c-7-43.2,21.6-101.7,60.5-121.6c20.4-10.5,39.6-4.1,48.6,17.1c4.4,10.5,7.1,21.8,10,32.9
		c4.5,17.1,15,27,32.6,29.7c9.1,1.4,18,3.6,27,5.4c6.7,1.3,12.2,4.9,16.6,9.9c6.7,7.6,3.7,17.2-6.1,19.7
		c-37.7,9.6-89.3-13.8-107.1-48.4C676.8,455.7,676.2,452.3,672.6,449.8z"/>
	<path class="st1" d="M858.5,553.4c-4.8-10.7-5-21.1,3-30.4c6.5-7.6,15-10.3,24.8-8.4c13.9,2.7,22.1,14.3,20.4,29
		c-1.4,12.9-13.3,22.8-26.8,22.4c-2.7-0.1-6.3-2.8-8.1,0.5c-2.1,3.9,2.5,5.5,4.4,7.8c23.6,29.2,26.5,67.7,7.2,100.2
		c-17.8,30-53.8,46.5-88.4,40.4c-36.6-6.4-64.4-33.8-70.9-69.9c-8.3-45.9,20.7-89.6,66.4-100.2c10.1-2.3,13.2-8.1,9.5-17.9
		c-0.4-1.2-2-2.2-2-3.2c-0.1-5.4-2.8-12.8,1.3-15.7c3.7-2.7,10.7-1,16.3-0.9c4.1,0.1,2.7,3.6,3.1,5.9c1.5,7.9-3,15.2-2.6,23.1
		c0.2,4.6,1,7.3,6.2,7.9c12.3,1.3,23.2,6.6,34,12.1c0.8,0.2,2,0.8,2.4,0.5C859.9,555.7,859.3,554.5,858.5,553.4z M808.8,686.5
		c31.4,0.2,57.2-25,57.6-56.3c0.4-31.1-25.1-57.4-56.2-57.8c-32-0.4-57.4,25.3-57.8,56.7C752,660.5,777.5,686.3,808.8,686.5z
		 M877.3,560.5c10.6,2.3,19.2-2.1,23.6-11.9c4.4-9.7,1.2-20.6-7.7-26.8c-8.3-5.8-19.5-4.8-27,2.4c-7.8,7.4-8.8,16.7-2.9,26.1
		c2.1-7.3,5.4-15.2,12.4-16.5c3.9-0.7,12.4,5.7,13.2,10C890.3,551,882.4,555.5,877.3,560.5z"/>
	<path class="st0" d="M455.6,511.4c-9.8-0.5-13.5-5.8-13.4-15.4c0.3-27.8,0-55.7,0.1-83.5c0-11.4,2.6-14,13.8-14.1
		c36.7-0.1,73.4-0.1,110,0c11.6,0,14.5,2.8,14.6,14.6c0.1,27.5-0.1,55,0.1,82.5c0.1,9.3-3.1,15.2-13.1,15.9
		C530.4,511.4,493,511.4,455.6,511.4z"/>
	<path class="st1" d="M559.7,542c12.8-0.1,25.5,0.5,37.9,4.5c19.2,6.3,31.4,19.3,38.2,38c2.1,5.7,0.5,7.7-5,8.2
		c-2.6,0.2-5.2,0.7-7.7,1.5c-11,3.2-19.1,4.1-26.6-9.2c-8.7-15.4-26.3-15.5-42.5-12.5c-17,3.2-28.1,14.1-32.8,30.5
		c-4.8,17-4.6,34.5,0.7,51.5c8.9,28.7,38.8,39.7,69.3,26c14.1-6.3,14.7-7.6,14.3-22.8c-0.1-5.1-1.5-7-6.7-6.7
		c-8.5,0.4-17.1-0.1-25.6,0.2c-4.6,0.2-6.1-1.3-6.4-6.1c-1.3-22.5-1.5-22.4,20.4-22.4c15.1,0,30.2,0.2,45.3-0.1
		c5.7-0.1,7.3,1.8,7.2,7.3c-0.3,18-0.2,36.1-0.1,54.1c0,3.4-0.5,6.3-3.5,8.6c-30.7,24-83.2,32.4-117.4,9.4
		c-31.9-21.5-38.3-53.9-34.6-89.4c1.9-18.4,10.1-34.4,22-48.4c2.4,0.5,3.3-1.3,4.3-2.9c12.5-11.4,27.5-16.6,44-18.8
		C556.2,542.3,558,542.1,559.7,542z"/>
	<path class="st1" d="M464.5,712.5c-10.4,0-19.1-0.1-27.9,0c-8,0.1-4.9-8.2-9.6-12c-12.6,11.4-27.8,16.4-45.3,13.9
		c-17-2.4-29-13.9-31.1-30.5c-2.2-16.5,5.6-30.1,21.5-36.8c14-5.9,29.4-6.5,43.7-11c3.9-1.2,10-0.2,9.8-7.2
		c-0.2-6.8-2.7-12-9.5-14.6c-12.2-4.5-24.2-1-31.4,10c-2.1,3.2-4.2,3.5-7.3,3c-4.2-0.8-8.4-1.4-12.6-2.2
		c-11.9-2.1-12.7-3.5-6.9-13.9c4.1-7.3,9.1-13.8,17.1-17.1c20.9-8.5,42.2-8.5,63.2-0.5c10.6,4,16.6,12.2,17.9,23.8
		c2.3,19.9,0.4,39.9,0.9,59.9C457.3,689,457.8,700.4,464.5,712.5z M425.7,663.8c-1.9-2.1,3.7-9.2-4.1-8.1c-9,1.2-17.8,3.8-26.5,6.4
		c-9.9,3-13.9,9.2-12.2,17.1c1.6,8.1,9,13.4,18.2,13.2C416,692,425.3,681.5,425.7,663.8z"/>
	<path class="st1" d="M209.6,643.1c0,20.6-0.2,41.3,0.1,61.9c0.1,6-1.4,8.2-7.6,7.7c-8.4-0.7-19.5,2.7-24.7-1.5
		c-5.6-4.4-1.7-15.9-1.7-24.3c-0.2-35.1-0.2-70.1,0-105.2c0.1-6.3-1.5-8.7-8.1-8.4c-11.4,0.5-22.9-0.1-34.4,0.3
		c-5.7,0.2-7-1.9-7.1-7.3c-0.4-21.3-0.6-21.3,20.5-21.3c34.7,0,69.5,0.2,104.2-0.2c6.9-0.1,8.8,1.8,8.7,8.7
		c-0.3,19.9,0.1,19.9-19.9,19.9c-7.5,0-15.1,0.4-22.6-0.1c-6.4-0.5-7.6,2.1-7.5,7.9C209.8,601.8,209.6,622.4,209.6,643.1z"/>
	<path class="st2" d="M725.6,294.5c29.5-0.1,51.2,15.6,55.8,35.8c2.6,11.5,0.3,14.1-11,11.6c-13.1-3-26-6.6-39.1-9.6
		c-10.5-2.4-13,0-12.5,10.9c0.7,16.2,10.7,25.6,24.6,31.2c8.4,3.4,17.5,5.6,26.4,7.6c7.6,1.7,8,5.4,4.6,11.2
		c-2.5,4.2-5.9,7.5-10.9,7.4c-26.3-0.6-51.1-6.5-70-25.9c-14-14.3-17.4-32.2-8.9-50.9C693.8,303.8,710.3,295,725.6,294.5z"/>
	<path class="st1" d="M296.6,606.1c17.5-22.6,28.2-18.9,41.2-15.2c5.9,1.6,7.9,4.9,4.7,10.7c-1.4,2.5-2.2,5.5-2.9,8.3
		c-2,7.9-3.7,13.4-14.6,8.5c-10.3-4.6-19.4,1.7-23,13.5c-3.1,10.1-3,20.7-3.2,31.2c-0.2,14.4-0.3,28.8,0,43.2c0.1,4.5-1.1,6-5.9,6.3
		c-26.3,1.3-26.3,1.4-26.3-24.2c0-29.8,0.2-59.6-0.2-89.4c-0.1-6.4,1.6-9,8.1-8.1c2.2,0.3,4.6,0.1,6.9,0.1
		C295.7,591,295.7,591,296.6,606.1z"/>
	<path class="st0" d="M510.4,561.2c-1,1.6-1.9,3.4-4.3,2.9c-8.8-6.8-11.4-17.5-14.7-27c-4.9-14.1-12.9-19.6-27.5-17.5
		c-3.4,0.5-11.6,3.1-8.4-6.6c37.4,0,74.8-0.1,112.2-0.1c3.6,7.1-1.7,7.1-5.9,6.9c-9.5-0.6-9.8,3.3-5.9,10.3c2,3.6,4.5,7.3,3.8,11.9
		c-1.8,0.1-3.6,0.3-5.4,0.4c-2.9-5.8-5.9-11.6-8.5-17.6c-1.7-3.7-4-5.5-8.2-5.5c-13.7,0.2-27.4,0.1-41.1,0c-3.6,0-5.8,0.5-3.7,4.9
		C498.8,536.6,504.6,548.9,510.4,561.2z"/>
	<path class="st2" d="M731,339.5c-0.1,2.6-1.5,4.2-4.2,4.2c-2.2,0-3.7-1.1-4-3.4c-0.3-2.6,1-4.5,3.6-4.8
		C729.2,335.2,730.6,336.9,731,339.5z"/>
	<path class="st1" d="M809,583c0.8,7.3,1.6,14.7,2.3,22c0.7,7-0.3,14.4,7.2,19c2.2,1.4,2.7,5,1.8,7.3c-2.8,6.8-6,13.1-4.7,21.1
		c0.6,3.4-4,1.9-6.4,2.3c-2.9,0.5-4.4-1-3.9-3.9c1.1-6.2-0.6-11.3-5-16c-2-2.1-2.4-6.1-0.3-8.3c10.1-10.7,5.6-24,7.1-36.2
		c0.3-2.4,0.4-4.9,0.6-7.3C808.1,583,808.5,583,809,583z"/>
</g>
</svg>
